<svg xmlns="http://www.w3.org/2000/svg" xmlns:xlink="http://www.w3.org/1999/xlink" width="40" zoomAndPan="magnify" viewBox="0 0 30 30.000001" height="40" preserveAspectRatio="xMidYMid meet" version="1.0"><defs><g/><clipPath id="1dace8a6b1"><path d="M 7.464844 0.660156 L 22.707031 0.660156 L 22.707031 18.082031 L 7.464844 18.082031 Z M 7.464844 0.660156 " clip-rule="nonzero"/></clipPath><clipPath id="d7d103a9f3"><path d="M 15.085938 0.664062 L 18.898438 2.835938 L 22.707031 5.019531 L 22.707031 7.664062 L 20.394531 7.664062 L 20.394531 15.046875 L 22.707031 13.722656 L 22.707031 7.664062 L 20.394531 6.339844 L 17.742188 4.828125 L 15.085938 3.304688 L 12.4375 4.828125 L 9.785156 6.339844 L 7.464844 7.664062 L 7.464844 13.722656 L 9.785156 15.046875 L 9.785156 7.664062 L 7.464844 7.664062 L 7.464844 5.019531 L 11.28125 2.835938 Z M 13.160156 7.464844 L 14.699219 7.464844 L 14.699219 8.984375 L 13.160156 8.984375 Z M 15.480469 7.464844 L 17.011719 7.464844 L 17.011719 8.984375 L 15.480469 8.984375 Z M 17.011719 9.757812 L 17.011719 11.28125 L 15.480469 11.28125 L 15.480469 9.757812 Z M 14.699219 11.28125 L 13.160156 11.28125 L 13.160156 9.757812 L 14.699219 9.757812 Z M 10.941406 15.707031 L 11.28125 15.898438 L 15.085938 18.082031 L 18.898438 15.898438 L 19.238281 15.707031 L 19.238281 13.0625 L 17.742188 13.917969 L 15.085938 15.429688 L 12.4375 13.917969 L 10.941406 13.0625 Z M 10.941406 15.707031 " clip-rule="evenodd"/></clipPath><linearGradient x1="70.610943" gradientTransform="matrix(0.00718282, 0, 0, 0.00710656, 7.465321, 0.662563)" y1="2505.637248" x2="2051.575713" gradientUnits="userSpaceOnUse" y2="-54.492161" id="28d122022f"><stop stop-opacity="1" stop-color="rgb(1.199341%, 59.599304%, 61.999512%)" offset="0"/><stop stop-opacity="1" stop-color="rgb(1.199341%, 59.599304%, 61.999512%)" offset="0.125"/><stop stop-opacity="1" stop-color="rgb(1.199341%, 59.599304%, 61.999512%)" offset="0.15625"/><stop stop-opacity="1" stop-color="rgb(1.199341%, 59.599304%, 61.999512%)" offset="0.171875"/><stop stop-opacity="1" stop-color="rgb(1.199341%, 59.599304%, 61.999512%)" offset="0.179688"/><stop stop-opacity="1" stop-color="rgb(1.478577%, 59.747314%, 61.836243%)" offset="0.183594"/><stop stop-opacity="1" stop-color="rgb(1.759338%, 59.895325%, 61.6745%)" offset="0.1875"/><stop stop-opacity="1" stop-color="rgb(2.053833%, 60.050964%, 61.503601%)" offset="0.191406"/><stop stop-opacity="1" stop-color="rgb(2.348328%, 60.206604%, 61.334229%)" offset="0.195312"/><stop stop-opacity="1" stop-color="rgb(2.641296%, 60.362244%, 61.16333%)" offset="0.199219"/><stop stop-opacity="1" stop-color="rgb(2.935791%, 60.517883%, 60.993958%)" offset="0.203125"/><stop stop-opacity="1" stop-color="rgb(3.230286%, 60.673523%, 60.823059%)" offset="0.207031"/><stop stop-opacity="1" stop-color="rgb(3.52478%, 60.829163%, 60.653687%)" offset="0.210938"/><stop stop-opacity="1" stop-color="rgb(3.819275%, 60.984802%, 60.482788%)" offset="0.214844"/><stop stop-opacity="1" stop-color="rgb(4.11377%, 61.140442%, 60.31189%)" offset="0.21875"/><stop stop-opacity="1" stop-color="rgb(4.406738%, 61.296082%, 60.140991%)" offset="0.222656"/><stop stop-opacity="1" stop-color="rgb(4.701233%, 61.451721%, 59.971619%)" offset="0.226562"/><stop stop-opacity="1" stop-color="rgb(4.995728%, 61.607361%, 59.80072%)" offset="0.230469"/><stop stop-opacity="1" stop-color="rgb(5.290222%, 61.763%, 59.631348%)" offset="0.234375"/><stop stop-opacity="1" stop-color="rgb(5.583191%, 61.91864%, 59.460449%)" offset="0.238281"/><stop stop-opacity="1" stop-color="rgb(5.877686%, 62.07428%, 59.291077%)" offset="0.242188"/><stop stop-opacity="1" stop-color="rgb(6.17218%, 62.229919%, 59.120178%)" offset="0.246094"/><stop stop-opacity="1" stop-color="rgb(6.466675%, 62.385559%, 58.950806%)" offset="0.25"/><stop stop-opacity="1" stop-color="rgb(6.761169%, 62.541199%, 58.779907%)" offset="0.253906"/><stop stop-opacity="1" stop-color="rgb(7.055664%, 62.696838%, 58.609009%)" offset="0.257812"/><stop stop-opacity="1" stop-color="rgb(7.348633%, 62.852478%, 58.43811%)" offset="0.261719"/><stop stop-opacity="1" stop-color="rgb(7.643127%, 63.008118%, 58.268738%)" offset="0.265625"/><stop stop-opacity="1" stop-color="rgb(7.937622%, 63.163757%, 58.097839%)" offset="0.269531"/><stop stop-opacity="1" stop-color="rgb(8.232117%, 63.319397%, 57.928467%)" offset="0.273438"/><stop stop-opacity="1" stop-color="rgb(8.525085%, 63.475037%, 57.757568%)" offset="0.277344"/><stop stop-opacity="1" stop-color="rgb(8.81958%, 63.630676%, 57.588196%)" offset="0.28125"/><stop stop-opacity="1" stop-color="rgb(9.114075%, 63.786316%, 57.417297%)" offset="0.285156"/><stop stop-opacity="1" stop-color="rgb(9.408569%, 63.941956%, 57.247925%)" offset="0.289063"/><stop stop-opacity="1" stop-color="rgb(9.703064%, 64.097595%, 57.077026%)" offset="0.292969"/><stop stop-opacity="1" stop-color="rgb(9.997559%, 64.253235%, 56.906128%)" offset="0.296875"/><stop stop-opacity="1" stop-color="rgb(10.290527%, 64.408875%, 56.735229%)" offset="0.300781"/><stop stop-opacity="1" stop-color="rgb(10.585022%, 64.564514%, 56.565857%)" offset="0.304688"/><stop stop-opacity="1" stop-color="rgb(10.879517%, 64.720154%, 56.394958%)" offset="0.308594"/><stop stop-opacity="1" stop-color="rgb(11.174011%, 64.875793%, 56.225586%)" offset="0.3125"/><stop stop-opacity="1" stop-color="rgb(11.46698%, 65.031433%, 56.054688%)" offset="0.316406"/><stop stop-opacity="1" stop-color="rgb(11.761475%, 65.187073%, 55.885315%)" offset="0.320313"/><stop stop-opacity="1" stop-color="rgb(12.055969%, 65.342712%, 55.714417%)" offset="0.324219"/><stop stop-opacity="1" stop-color="rgb(12.350464%, 65.498352%, 55.545044%)" offset="0.328125"/><stop stop-opacity="1" stop-color="rgb(12.643433%, 65.653992%, 55.374146%)" offset="0.332031"/><stop stop-opacity="1" stop-color="rgb(12.937927%, 65.809631%, 55.204773%)" offset="0.335938"/><stop stop-opacity="1" stop-color="rgb(13.232422%, 65.965271%, 55.033875%)" offset="0.339844"/><stop stop-opacity="1" stop-color="rgb(13.526917%, 66.120911%, 54.862976%)" offset="0.34375"/><stop stop-opacity="1" stop-color="rgb(13.821411%, 66.27655%, 54.692078%)" offset="0.347656"/><stop stop-opacity="1" stop-color="rgb(14.115906%, 66.43219%, 54.522705%)" offset="0.351563"/><stop stop-opacity="1" stop-color="rgb(14.408875%, 66.58783%, 54.351807%)" offset="0.355469"/><stop stop-opacity="1" stop-color="rgb(14.703369%, 66.743469%, 54.182434%)" offset="0.359375"/><stop stop-opacity="1" stop-color="rgb(14.997864%, 66.899109%, 54.011536%)" offset="0.363281"/><stop stop-opacity="1" stop-color="rgb(15.292358%, 67.054749%, 53.842163%)" offset="0.367188"/><stop stop-opacity="1" stop-color="rgb(15.585327%, 67.210388%, 53.671265%)" offset="0.371094"/><stop stop-opacity="1" stop-color="rgb(15.879822%, 67.366028%, 53.501892%)" offset="0.375"/><stop stop-opacity="1" stop-color="rgb(16.174316%, 67.521667%, 53.330994%)" offset="0.378906"/><stop stop-opacity="1" stop-color="rgb(16.468811%, 67.677307%, 53.160095%)" offset="0.382813"/><stop stop-opacity="1" stop-color="rgb(16.763306%, 67.832947%, 52.989197%)" offset="0.386719"/><stop stop-opacity="1" stop-color="rgb(17.0578%, 67.988586%, 52.819824%)" offset="0.390625"/><stop stop-opacity="1" stop-color="rgb(17.350769%, 68.144226%, 52.648926%)" offset="0.394531"/><stop stop-opacity="1" stop-color="rgb(17.645264%, 68.299866%, 52.479553%)" offset="0.398438"/><stop stop-opacity="1" stop-color="rgb(17.939758%, 68.455505%, 52.308655%)" offset="0.402344"/><stop stop-opacity="1" stop-color="rgb(18.234253%, 68.611145%, 52.139282%)" offset="0.40625"/><stop stop-opacity="1" stop-color="rgb(18.527222%, 68.766785%, 51.968384%)" offset="0.410156"/><stop stop-opacity="1" stop-color="rgb(18.821716%, 68.922424%, 51.799011%)" offset="0.414062"/><stop stop-opacity="1" stop-color="rgb(19.116211%, 69.078064%, 51.628113%)" offset="0.417969"/><stop stop-opacity="1" stop-color="rgb(19.410706%, 69.233704%, 51.457214%)" offset="0.421875"/><stop stop-opacity="1" stop-color="rgb(19.703674%, 69.389343%, 51.286316%)" offset="0.425781"/><stop stop-opacity="1" stop-color="rgb(19.998169%, 69.544983%, 51.116943%)" offset="0.429688"/><stop stop-opacity="1" stop-color="rgb(20.292664%, 69.700623%, 50.946045%)" offset="0.433594"/><stop stop-opacity="1" stop-color="rgb(20.587158%, 69.856262%, 50.776672%)" offset="0.4375"/><stop stop-opacity="1" stop-color="rgb(20.881653%, 70.011902%, 50.605774%)" offset="0.441406"/><stop stop-opacity="1" stop-color="rgb(21.176147%, 70.167542%, 50.436401%)" offset="0.445313"/><stop stop-opacity="1" stop-color="rgb(21.469116%, 70.323181%, 50.265503%)" offset="0.449219"/><stop stop-opacity="1" stop-color="rgb(21.763611%, 70.478821%, 50.09613%)" offset="0.453125"/><stop stop-opacity="1" stop-color="rgb(22.058105%, 70.63446%, 49.925232%)" offset="0.457031"/><stop stop-opacity="1" stop-color="rgb(22.3526%, 70.7901%, 49.754333%)" offset="0.460938"/><stop stop-opacity="1" stop-color="rgb(22.645569%, 70.94574%, 49.583435%)" offset="0.464844"/><stop stop-opacity="1" stop-color="rgb(22.940063%, 71.101379%, 49.414062%)" offset="0.46875"/><stop stop-opacity="1" stop-color="rgb(23.234558%, 71.257019%, 49.243164%)" offset="0.472656"/><stop stop-opacity="1" stop-color="rgb(23.529053%, 71.412659%, 49.073792%)" offset="0.476563"/><stop stop-opacity="1" stop-color="rgb(23.823547%, 71.568298%, 48.902893%)" offset="0.480469"/><stop stop-opacity="1" stop-color="rgb(24.118042%, 71.723938%, 48.733521%)" offset="0.484375"/><stop stop-opacity="1" stop-color="rgb(24.411011%, 71.879578%, 48.562622%)" offset="0.488281"/><stop stop-opacity="1" stop-color="rgb(24.705505%, 72.035217%, 48.39325%)" offset="0.492188"/><stop stop-opacity="1" stop-color="rgb(25%, 72.190857%, 48.222351%)" offset="0.496094"/><stop stop-opacity="1" stop-color="rgb(25.294495%, 72.346497%, 48.051453%)" offset="0.5"/><stop stop-opacity="1" stop-color="rgb(25.587463%, 72.502136%, 47.880554%)" offset="0.503906"/><stop stop-opacity="1" stop-color="rgb(25.881958%, 72.657776%, 47.711182%)" offset="0.507812"/><stop stop-opacity="1" stop-color="rgb(26.176453%, 72.813416%, 47.540283%)" offset="0.511719"/><stop stop-opacity="1" stop-color="rgb(26.470947%, 72.969055%, 47.370911%)" offset="0.515625"/><stop stop-opacity="1" stop-color="rgb(26.765442%, 73.124695%, 47.200012%)" offset="0.519531"/><stop stop-opacity="1" stop-color="rgb(27.059937%, 73.280334%, 47.03064%)" offset="0.523438"/><stop stop-opacity="1" stop-color="rgb(27.352905%, 73.435974%, 46.859741%)" offset="0.527344"/><stop stop-opacity="1" stop-color="rgb(27.6474%, 73.591614%, 46.690369%)" offset="0.53125"/><stop stop-opacity="1" stop-color="rgb(27.941895%, 73.747253%, 46.51947%)" offset="0.535156"/><stop stop-opacity="1" stop-color="rgb(28.236389%, 73.902893%, 46.350098%)" offset="0.539063"/><stop stop-opacity="1" stop-color="rgb(28.529358%, 74.058533%, 46.179199%)" offset="0.542969"/><stop stop-opacity="1" stop-color="rgb(28.823853%, 74.214172%, 46.008301%)" offset="0.546875"/><stop stop-opacity="1" stop-color="rgb(29.118347%, 74.369812%, 45.837402%)" offset="0.550781"/><stop stop-opacity="1" stop-color="rgb(29.412842%, 74.525452%, 45.66803%)" offset="0.554688"/><stop stop-opacity="1" stop-color="rgb(29.705811%, 74.681091%, 45.497131%)" offset="0.558594"/><stop stop-opacity="1" stop-color="rgb(30.000305%, 74.836731%, 45.327759%)" offset="0.5625"/><stop stop-opacity="1" stop-color="rgb(30.2948%, 74.992371%, 45.15686%)" offset="0.566406"/><stop stop-opacity="1" stop-color="rgb(30.589294%, 75.14801%, 44.987488%)" offset="0.570313"/><stop stop-opacity="1" stop-color="rgb(30.883789%, 75.30365%, 44.816589%)" offset="0.574219"/><stop stop-opacity="1" stop-color="rgb(31.178284%, 75.45929%, 44.647217%)" offset="0.578125"/><stop stop-opacity="1" stop-color="rgb(31.471252%, 75.614929%, 44.476318%)" offset="0.582031"/><stop stop-opacity="1" stop-color="rgb(31.765747%, 75.770569%, 44.30542%)" offset="0.585938"/><stop stop-opacity="1" stop-color="rgb(32.060242%, 75.926208%, 44.134521%)" offset="0.589844"/><stop stop-opacity="1" stop-color="rgb(32.354736%, 76.081848%, 43.965149%)" offset="0.59375"/><stop stop-opacity="1" stop-color="rgb(32.647705%, 76.237488%, 43.79425%)" offset="0.597656"/><stop stop-opacity="1" stop-color="rgb(32.9422%, 76.393127%, 43.624878%)" offset="0.601562"/><stop stop-opacity="1" stop-color="rgb(33.236694%, 76.548767%, 43.453979%)" offset="0.605469"/><stop stop-opacity="1" stop-color="rgb(33.531189%, 76.704407%, 43.284607%)" offset="0.609375"/><stop stop-opacity="1" stop-color="rgb(33.825684%, 76.860046%, 43.113708%)" offset="0.613281"/><stop stop-opacity="1" stop-color="rgb(34.120178%, 77.015686%, 42.944336%)" offset="0.617188"/><stop stop-opacity="1" stop-color="rgb(34.413147%, 77.171326%, 42.773438%)" offset="0.621094"/><stop stop-opacity="1" stop-color="rgb(34.707642%, 77.326965%, 42.602539%)" offset="0.625"/><stop stop-opacity="1" stop-color="rgb(35.002136%, 77.482605%, 42.431641%)" offset="0.628906"/><stop stop-opacity="1" stop-color="rgb(35.296631%, 77.638245%, 42.262268%)" offset="0.632812"/><stop stop-opacity="1" stop-color="rgb(35.5896%, 77.793884%, 42.09137%)" offset="0.636719"/><stop stop-opacity="1" stop-color="rgb(35.884094%, 77.949524%, 41.921997%)" offset="0.640625"/><stop stop-opacity="1" stop-color="rgb(36.178589%, 78.105164%, 41.751099%)" offset="0.644531"/><stop stop-opacity="1" stop-color="rgb(36.473083%, 78.260803%, 41.581726%)" offset="0.648438"/><stop stop-opacity="1" stop-color="rgb(36.766052%, 78.416443%, 41.410828%)" offset="0.652344"/><stop stop-opacity="1" stop-color="rgb(37.060547%, 78.572083%, 41.241455%)" offset="0.65625"/><stop stop-opacity="1" stop-color="rgb(37.355042%, 78.727722%, 41.070557%)" offset="0.660156"/><stop stop-opacity="1" stop-color="rgb(37.649536%, 78.883362%, 40.899658%)" offset="0.664062"/><stop stop-opacity="1" stop-color="rgb(37.944031%, 79.039001%, 40.72876%)" offset="0.667969"/><stop stop-opacity="1" stop-color="rgb(38.238525%, 79.194641%, 40.559387%)" offset="0.671875"/><stop stop-opacity="1" stop-color="rgb(38.531494%, 79.350281%, 40.388489%)" offset="0.675781"/><stop stop-opacity="1" stop-color="rgb(38.825989%, 79.50592%, 40.219116%)" offset="0.679688"/><stop stop-opacity="1" stop-color="rgb(39.120483%, 79.66156%, 40.048218%)" offset="0.683594"/><stop stop-opacity="1" stop-color="rgb(39.414978%, 79.8172%, 39.878845%)" offset="0.6875"/><stop stop-opacity="1" stop-color="rgb(39.707947%, 79.972839%, 39.707947%)" offset="0.691406"/><stop stop-opacity="1" stop-color="rgb(40.002441%, 80.128479%, 39.538574%)" offset="0.695313"/><stop stop-opacity="1" stop-color="rgb(40.296936%, 80.284119%, 39.367676%)" offset="0.699219"/><stop stop-opacity="1" stop-color="rgb(40.591431%, 80.439758%, 39.198303%)" offset="0.703125"/><stop stop-opacity="1" stop-color="rgb(40.885925%, 80.595398%, 39.027405%)" offset="0.707031"/><stop stop-opacity="1" stop-color="rgb(41.18042%, 80.751038%, 38.856506%)" offset="0.710938"/><stop stop-opacity="1" stop-color="rgb(41.473389%, 80.906677%, 38.685608%)" offset="0.714844"/><stop stop-opacity="1" stop-color="rgb(41.767883%, 81.062317%, 38.516235%)" offset="0.71875"/><stop stop-opacity="1" stop-color="rgb(42.062378%, 81.217957%, 38.345337%)" offset="0.722656"/><stop stop-opacity="1" stop-color="rgb(42.356873%, 81.373596%, 38.175964%)" offset="0.726563"/><stop stop-opacity="1" stop-color="rgb(42.649841%, 81.529236%, 38.005066%)" offset="0.730469"/><stop stop-opacity="1" stop-color="rgb(42.944336%, 81.684875%, 37.835693%)" offset="0.734375"/><stop stop-opacity="1" stop-color="rgb(43.238831%, 81.840515%, 37.664795%)" offset="0.738281"/><stop stop-opacity="1" stop-color="rgb(43.533325%, 81.996155%, 37.495422%)" offset="0.742188"/><stop stop-opacity="1" stop-color="rgb(43.826294%, 82.151794%, 37.324524%)" offset="0.746094"/><stop stop-opacity="1" stop-color="rgb(44.120789%, 82.307434%, 37.153625%)" offset="0.75"/><stop stop-opacity="1" stop-color="rgb(44.415283%, 82.463074%, 36.982727%)" offset="0.753906"/><stop stop-opacity="1" stop-color="rgb(44.709778%, 82.618713%, 36.813354%)" offset="0.757812"/><stop stop-opacity="1" stop-color="rgb(45.004272%, 82.774353%, 36.642456%)" offset="0.761719"/><stop stop-opacity="1" stop-color="rgb(45.298767%, 82.929993%, 36.473083%)" offset="0.765625"/><stop stop-opacity="1" stop-color="rgb(45.591736%, 83.085632%, 36.302185%)" offset="0.769531"/><stop stop-opacity="1" stop-color="rgb(45.88623%, 83.241272%, 36.132812%)" offset="0.773438"/><stop stop-opacity="1" stop-color="rgb(46.180725%, 83.396912%, 35.961914%)" offset="0.777344"/><stop stop-opacity="1" stop-color="rgb(46.47522%, 83.552551%, 35.792542%)" offset="0.78125"/><stop stop-opacity="1" stop-color="rgb(46.768188%, 83.708191%, 35.621643%)" offset="0.785156"/><stop stop-opacity="1" stop-color="rgb(47.062683%, 83.863831%, 35.450745%)" offset="0.789063"/><stop stop-opacity="1" stop-color="rgb(47.357178%, 84.01947%, 35.279846%)" offset="0.792969"/><stop stop-opacity="1" stop-color="rgb(47.651672%, 84.17511%, 35.110474%)" offset="0.796875"/><stop stop-opacity="1" stop-color="rgb(47.946167%, 84.33075%, 34.939575%)" offset="0.800781"/><stop stop-opacity="1" stop-color="rgb(48.240662%, 84.486389%, 34.770203%)" offset="0.804688"/><stop stop-opacity="1" stop-color="rgb(48.53363%, 84.642029%, 34.599304%)" offset="0.808594"/><stop stop-opacity="1" stop-color="rgb(48.828125%, 84.797668%, 34.429932%)" offset="0.8125"/><stop stop-opacity="1" stop-color="rgb(49.113464%, 84.94873%, 34.263611%)" offset="0.816406"/><stop stop-opacity="1" stop-color="rgb(49.398804%, 85.099792%, 34.098816%)" offset="0.820312"/><stop stop-opacity="1" stop-color="rgb(49.398804%, 85.099792%, 34.098816%)" offset="0.828125"/><stop stop-opacity="1" stop-color="rgb(49.398804%, 85.099792%, 34.098816%)" offset="0.84375"/><stop stop-opacity="1" stop-color="rgb(49.398804%, 85.099792%, 34.098816%)" offset="0.875"/><stop stop-opacity="1" stop-color="rgb(49.398804%, 85.099792%, 34.098816%)" offset="1"/></linearGradient></defs><g clip-path="url(#1dace8a6b1)"><g clip-path="url(#d7d103a9f3)"><path fill="url(#28d122022f)" d="M 7.464844 0.664062 L 7.464844 18.082031 L 22.707031 18.082031 L 22.707031 0.664062 Z M 7.464844 0.664062 " fill-rule="nonzero"/></g></g><g fill="#000000" fill-opacity="1"><g transform="translate(4.262781, 23.030089)"><g><path d="M 1.640625 0.078125 C 1.347656 0.078125 1.0625 0.0390625 0.78125 -0.03125 C 0.507812 -0.101562 0.285156 -0.203125 0.109375 -0.328125 L 0.453125 -1.078125 C 0.609375 -0.972656 0.789062 -0.882812 1 -0.8125 C 1.21875 -0.75 1.429688 -0.71875 1.640625 -0.71875 C 2.035156 -0.71875 2.234375 -0.816406 2.234375 -1.015625 C 2.234375 -1.117188 2.175781 -1.195312 2.0625 -1.25 C 1.957031 -1.300781 1.78125 -1.351562 1.53125 -1.40625 C 1.25 -1.46875 1.015625 -1.53125 0.828125 -1.59375 C 0.648438 -1.664062 0.492188 -1.773438 0.359375 -1.921875 C 0.234375 -2.066406 0.171875 -2.269531 0.171875 -2.53125 C 0.171875 -2.75 0.226562 -2.945312 0.34375 -3.125 C 0.46875 -3.300781 0.648438 -3.441406 0.890625 -3.546875 C 1.128906 -3.648438 1.425781 -3.703125 1.78125 -3.703125 C 2.019531 -3.703125 2.253906 -3.675781 2.484375 -3.625 C 2.710938 -3.570312 2.914062 -3.492188 3.09375 -3.390625 L 2.78125 -2.625 C 2.4375 -2.8125 2.101562 -2.90625 1.78125 -2.90625 C 1.570312 -2.90625 1.421875 -2.875 1.328125 -2.8125 C 1.234375 -2.75 1.1875 -2.671875 1.1875 -2.578125 C 1.1875 -2.484375 1.238281 -2.410156 1.34375 -2.359375 C 1.457031 -2.304688 1.640625 -2.253906 1.890625 -2.203125 C 2.160156 -2.148438 2.382812 -2.085938 2.5625 -2.015625 C 2.75 -1.953125 2.910156 -1.847656 3.046875 -1.703125 C 3.179688 -1.554688 3.25 -1.351562 3.25 -1.09375 C 3.25 -0.875 3.1875 -0.675781 3.0625 -0.5 C 2.945312 -0.332031 2.765625 -0.191406 2.515625 -0.078125 C 2.273438 0.0234375 1.984375 0.078125 1.640625 0.078125 Z M 1.640625 0.078125 "/></g></g></g><g fill="#000000" fill-opacity="1"><g transform="translate(8.106836, 23.030089)"><g><path d="M 3.640625 0 L 3.625 -1.921875 L 2.703125 -0.359375 L 2.234375 -0.359375 L 1.3125 -1.875 L 1.3125 0 L 0.359375 0 L 0.359375 -3.625 L 1.203125 -3.625 L 2.484375 -1.53125 L 3.734375 -3.625 L 4.578125 -3.625 L 4.578125 0 Z M 3.640625 0 "/></g></g></g><g fill="#000000" fill-opacity="1"><g transform="translate(13.543503, 23.030089)"><g><path d="M 2.796875 -0.703125 L 1.265625 -0.703125 L 0.96875 0 L -0.078125 0 L 1.53125 -3.625 L 2.546875 -3.625 L 4.15625 0 L 3.078125 0 Z M 2.5 -1.46875 L 2.03125 -2.625 L 1.5625 -1.46875 Z M 2.5 -1.46875 "/></g></g></g><g fill="#000000" fill-opacity="1"><g transform="translate(18.108646, 23.030089)"><g><path d="M 1.953125 -0.96875 L 1.390625 -0.96875 L 1.390625 0 L 0.359375 0 L 0.359375 -3.625 L 2.015625 -3.625 C 2.347656 -3.625 2.632812 -3.566406 2.875 -3.453125 C 3.125 -3.347656 3.3125 -3.195312 3.4375 -3 C 3.570312 -2.800781 3.640625 -2.5625 3.640625 -2.28125 C 3.640625 -2.019531 3.578125 -1.789062 3.453125 -1.59375 C 3.328125 -1.40625 3.148438 -1.253906 2.921875 -1.140625 L 3.703125 0 L 2.609375 0 Z M 2.59375 -2.28125 C 2.59375 -2.457031 2.539062 -2.59375 2.4375 -2.6875 C 2.332031 -2.78125 2.171875 -2.828125 1.953125 -2.828125 L 1.390625 -2.828125 L 1.390625 -1.765625 L 1.953125 -1.765625 C 2.171875 -1.765625 2.332031 -1.804688 2.4375 -1.890625 C 2.539062 -1.984375 2.59375 -2.113281 2.59375 -2.28125 Z M 2.59375 -2.28125 "/></g></g></g><g fill="#000000" fill-opacity="1"><g transform="translate(22.435156, 23.030089)"><g><path d="M 1.140625 -2.8125 L 0.015625 -2.8125 L 0.015625 -3.625 L 3.265625 -3.625 L 3.265625 -2.8125 L 2.15625 -2.8125 L 2.15625 0 L 1.140625 0 Z M 1.140625 -2.8125 "/></g></g></g><g fill="#000000" fill-opacity="1"><g transform="translate(8.962749, 27.375861)"><g><path d="M 2.140625 0 L 1.609375 0 L 1.609375 -0.8125 L 0.75 -0.8125 L 0.75 0 L 0.203125 0 L 0.203125 -2.09375 L 0.75 -2.09375 L 0.75 -1.234375 L 1.609375 -1.234375 L 1.609375 -2.09375 L 2.140625 -2.09375 Z M 2.140625 0 "/></g></g></g><g fill="#000000" fill-opacity="1"><g transform="translate(11.473574, 27.375861)"><g><path d="M 1.203125 -2.125 C 1.523438 -2.125 1.796875 -2.019531 2.015625 -1.8125 C 2.234375 -1.613281 2.34375 -1.359375 2.34375 -1.046875 C 2.34375 -0.742188 2.234375 -0.488281 2.015625 -0.28125 C 1.796875 -0.0703125 1.523438 0.03125 1.203125 0.03125 C 0.878906 0.03125 0.609375 -0.0703125 0.390625 -0.28125 C 0.179688 -0.488281 0.078125 -0.742188 0.078125 -1.046875 C 0.078125 -1.359375 0.179688 -1.613281 0.390625 -1.8125 C 0.609375 -2.019531 0.878906 -2.125 1.203125 -2.125 Z M 1.21875 -1.671875 C 1.050781 -1.671875 0.910156 -1.609375 0.796875 -1.484375 C 0.679688 -1.367188 0.625 -1.222656 0.625 -1.046875 C 0.625 -0.867188 0.679688 -0.71875 0.796875 -0.59375 C 0.910156 -0.476562 1.046875 -0.421875 1.203125 -0.421875 C 1.367188 -0.421875 1.507812 -0.476562 1.625 -0.59375 C 1.738281 -0.71875 1.796875 -0.867188 1.796875 -1.046875 C 1.796875 -1.222656 1.738281 -1.367188 1.625 -1.484375 C 1.507812 -1.609375 1.375 -1.671875 1.21875 -1.671875 Z M 1.21875 -1.671875 "/></g></g></g><g fill="#000000" fill-opacity="1"><g transform="translate(14.041461, 27.375861)"><g><path d="M 2.515625 0 L 2.046875 0 L 2.046875 -1.359375 L 1.53125 -0.203125 L 1.1875 -0.203125 L 0.6875 -1.359375 L 0.6875 0 L 0.203125 0 L 0.203125 -2.109375 L 0.796875 -2.109375 L 1.359375 -0.859375 L 1.9375 -2.109375 L 2.515625 -2.109375 Z M 2.515625 0 "/></g></g></g><g fill="#000000" fill-opacity="1"><g transform="translate(16.924704, 27.375861)"><g><path d="M 1.859375 -1.6875 L 0.75 -1.6875 L 0.75 -1.265625 L 1.75 -1.265625 L 1.75 -0.84375 L 0.75 -0.84375 L 0.75 -0.421875 L 1.890625 -0.421875 L 1.890625 0 L 0.203125 0 L 0.203125 -2.09375 L 1.859375 -2.09375 Z M 1.859375 -1.6875 "/></g></g></g><g fill="#000000" fill-opacity="1"><g transform="translate(19.09915, 27.375861)"><g><path d="M 1.015625 -2.125 C 1.328125 -2.125 1.601562 -2.046875 1.84375 -1.890625 L 1.640625 -1.46875 C 1.535156 -1.53125 1.414062 -1.582031 1.28125 -1.625 C 1.15625 -1.664062 1.050781 -1.6875 0.96875 -1.6875 C 0.8125 -1.6875 0.734375 -1.632812 0.734375 -1.53125 C 0.734375 -1.46875 0.769531 -1.414062 0.84375 -1.375 C 0.925781 -1.332031 1.019531 -1.296875 1.125 -1.265625 C 1.238281 -1.242188 1.347656 -1.210938 1.453125 -1.171875 C 1.566406 -1.128906 1.660156 -1.0625 1.734375 -0.96875 C 1.804688 -0.875 1.84375 -0.757812 1.84375 -0.625 C 1.84375 -0.425781 1.765625 -0.269531 1.609375 -0.15625 C 1.453125 -0.0390625 1.253906 0.015625 1.015625 0.015625 C 0.835938 0.015625 0.660156 -0.0078125 0.484375 -0.0625 C 0.316406 -0.125 0.171875 -0.207031 0.046875 -0.3125 L 0.265625 -0.734375 C 0.367188 -0.640625 0.488281 -0.5625 0.625 -0.5 C 0.769531 -0.4375 0.898438 -0.40625 1.015625 -0.40625 C 1.097656 -0.40625 1.164062 -0.421875 1.21875 -0.453125 C 1.269531 -0.484375 1.296875 -0.53125 1.296875 -0.59375 C 1.296875 -0.65625 1.265625 -0.703125 1.203125 -0.734375 C 1.148438 -0.773438 1.082031 -0.804688 1 -0.828125 C 0.914062 -0.847656 0.828125 -0.875 0.734375 -0.90625 C 0.640625 -0.9375 0.550781 -0.96875 0.46875 -1 C 0.382812 -1.039062 0.316406 -1.101562 0.265625 -1.1875 C 0.210938 -1.269531 0.1875 -1.367188 0.1875 -1.484375 C 0.1875 -1.679688 0.257812 -1.835938 0.40625 -1.953125 C 0.5625 -2.066406 0.765625 -2.125 1.015625 -2.125 Z M 1.015625 -2.125 "/></g></g></g></svg>